<svg width="16" height="14" viewBox="0 0 16 14" fill="none" xmlns="http://www.w3.org/2000/svg">
<path d="M5.30833 13.6538C5.4375 13.5226 9.775 8.28995 9.775 8.28995C9.78333 8.28267 9.79167 8.27538 9.79583 8.27173C10.0292 8.07132 10.2292 8.08225 10.5792 8.06767C10.5792 8.06767 13.4542 8.03488 14.4125 7.98751C15.3708 7.94014 16 7.50286 16 6.99271C16 6.48256 15.375 6.04893 14.4167 6.00156C13.4583 5.95419 10.5833 5.9214 10.5833 5.9214C10.2333 5.90682 10.0333 5.91775 9.8 5.71733C9.79167 5.71005 9.78333 5.70276 9.77917 5.69912C9.77917 5.69912 5.44167 0.470067 5.3125 0.335242C5.18333 0.200416 4.9875 -4.41969e-07 4.55417 -4.5936e-07C4.04583 -4.79761e-07 3.98334 0.131181 4.07084 0.386257C4.07084 0.386257 5.71667 5.49506 5.77083 5.68454C5.825 5.87402 5.74584 5.97241 5.45833 5.98699C5.17083 6.00156 3.525 6.01614 3.33333 6.01978C3.14167 6.02343 3.1375 5.99792 3.025 5.91411L1.325 4.74805C1.24167 4.6861 1.1375 4.64966 1.02084 4.64966C1.02084 4.64966 0.766669 4.64966 0.504169 4.64966C0.241669 4.64966 0.200002 4.75169 0.300003 4.94846C0.400002 5.14524 1.025 6.13639 1.025 6.13639C1.0375 6.1619 1.10417 6.30401 1.10417 6.3696C1.10417 6.52264 1.10833 6.66111 0.845834 6.69027C0.370834 6.73764 1.58034e-06 6.86882 1.57409e-06 7C1.56784e-06 7.13118 0.370834 7.26236 0.845834 7.30974C1.10833 7.33524 1.10417 7.47736 1.10417 7.6304C1.10417 7.69599 1.0375 7.83811 1.025 7.86361C1.025 7.86361 0.400002 8.85476 0.300003 9.05154C0.200002 9.24831 0.241669 9.35034 0.504169 9.35034C0.766669 9.35034 1.02084 9.35034 1.02084 9.35034C1.1375 9.35034 1.24583 9.3139 1.325 9.25195L3.025 8.08589C3.1375 8.00208 3.14583 7.98022 3.33333 7.98022C3.52083 7.98022 5.17083 7.99844 5.45833 8.01301C5.74583 8.02759 5.825 8.12598 5.77083 8.31546C5.71667 8.50495 4.07083 13.6137 4.07083 13.6137C3.98333 13.8725 4.04583 14 4.55417 14C4.98333 13.9891 5.17917 13.7887 5.30833 13.6538Z" fill="#32ACC8"/>
</svg>
