<svg width="24" height="26" viewBox="0 0 24 26" fill="none" xmlns="http://www.w3.org/2000/svg">
<path d="M9.53276 13.9097L1.10968 16.6823L-4.56287e-09 18.0722L0.23087 16.3348C0.318352 15.8707 0.58471 15.4564 0.975617 15.1766L9.50297 9.3852L9.53276 13.9097ZM13.2565 13.6057L22.5956 16.6823L23.7127 18.0722L23.4819 16.3348C23.393 15.8712 23.1269 15.4574 22.7371 15.1766L13.2937 8.72643C13.2937 6.70669 13.2193 4.54942 13.1224 3.41286C13.0992 2.49589 12.8016 1.60537 12.266 0.85018C12.2231 0.793325 12.167 0.747088 12.1023 0.715218C12.0376 0.683349 11.9661 0.666748 11.8936 0.666748C11.8211 0.666748 11.7496 0.683349 11.6849 0.715218C11.6202 0.747088 11.5641 0.793325 11.5212 0.85018C10.9925 1.60818 10.6979 2.4974 10.6722 3.41286C10.486 5.47603 10.4711 10.7389 10.4786 12.8962C10.4772 13.5302 10.517 14.1637 10.5977 14.7929L10.8137 16.9646H10.3669L10.3669 16.2407C10.3669 15.9584 10.136 15.8715 9.84556 15.8715H9.57C9.27955 15.8715 9.04123 15.9584 9.04123 16.2407L9.19018 19.759C9.18919 19.8261 9.20194 19.8928 9.2277 19.9551C9.25346 20.0174 9.29171 20.0742 9.34021 20.122C9.38872 20.1698 9.44652 20.2078 9.51026 20.2337C9.574 20.2596 9.6424 20.273 9.7115 20.273H9.84556C9.97123 20.2707 10.092 20.2251 10.1861 20.1441C10.2803 20.0632 10.3418 19.9523 10.3594 19.8314L10.9999 20.1354L11.1265 21.395L7.29852 24.2907L7.29852 25.3331L11.8862 23.4727L16.4813 25.3331L16.4813 24.2907L12.6458 21.395L12.7724 20.1499L13.5172 19.8314C13.535 19.9535 13.5976 20.0654 13.6933 20.1465C13.789 20.2276 13.9115 20.2724 14.0385 20.273H14.1651C14.2345 20.273 14.3033 20.2597 14.3674 20.2338C14.4316 20.208 14.4899 20.1701 14.539 20.1224C14.5881 20.0747 14.627 20.018 14.6536 19.9557C14.6802 19.8933 14.6939 19.8265 14.6939 19.759L14.8354 16.2407C14.8354 15.9584 14.6045 15.8715 14.314 15.8715H14.0385C13.748 15.8715 13.5097 15.9584 13.5097 16.2407L13.5097 16.9646H12.9958L13.2193 14.7929C13.1895 14.402 13.2193 14.0038 13.2342 13.6057H13.2565Z" fill="url(#paint0_linear_761_4742)"/>
<defs>
<linearGradient id="paint0_linear_761_4742" x1="-0.00494841" y1="12.988" x2="23.6929" y2="12.988" gradientUnits="userSpaceOnUse">
<stop stop-color="#13B89B"/>
<stop offset="1" stop-color="#29ABE2"/>
</linearGradient>
</defs>
</svg>
