<svg width="16" height="17" viewBox="0 0 16 17" fill="none" xmlns="http://www.w3.org/2000/svg">
<path d="M14.8936 6.86406C14.6882 6.72025 14.5027 6.54771 14.3423 6.35127C14.3542 6.07778 14.4069 5.8079 14.4985 5.55134C14.6707 4.94325 14.8852 4.18646 14.4719 3.5943C14.0555 2.99741 13.295 2.97738 12.6839 2.96108C12.4269 2.97179 12.1697 2.94296 11.9208 2.87551C11.7839 2.65153 11.6793 2.40774 11.6105 2.152C11.4067 1.54638 11.1527 0.792616 10.4725 0.562072C9.8125 0.338341 9.2202 0.763411 8.69793 1.13723C8.48805 1.31202 8.25241 1.45019 8.00017 1.54638C7.74779 1.45029 7.51203 1.31211 7.3021 1.13723C6.7798 0.763098 6.18733 0.33935 5.5275 0.562072C4.8475 0.792616 4.5936 1.546 4.3895 2.15175C4.32084 2.40624 4.21746 2.64911 4.08253 2.87291C3.83277 2.94241 3.57435 2.97207 3.31607 2.96087C2.70507 2.97714 1.9445 2.9972 1.52817 3.59406C1.11483 4.18657 1.32927 4.94336 1.5015 5.55148C1.59205 5.80667 1.64521 6.07463 1.6592 6.34634C1.49953 6.54556 1.31334 6.71991 1.1063 6.8641C0.613333 7.25624 0 7.74445 0 8.49992C0 9.25539 0.613333 9.74359 1.10643 10.1358C1.31182 10.2796 1.4973 10.4521 1.6577 10.6486C1.6458 10.9221 1.59309 11.1919 1.50147 11.4485C1.32927 12.0566 1.1148 12.8134 1.52813 13.4055C1.94447 14.0024 2.70503 14.0225 3.31607 14.0388C3.5731 14.028 3.83025 14.0569 4.07923 14.1243C4.21613 14.3483 4.32066 14.5921 4.38947 14.8478C4.59357 15.4536 4.84747 16.2073 5.52763 16.4379C5.64814 16.4791 5.77415 16.5 5.90097 16.5C6.41287 16.5 6.8803 16.1649 7.3022 15.8627C7.51208 15.6879 7.74773 15.5497 8 15.4535C8.25239 15.5496 8.48815 15.6877 8.6981 15.8626C9.22037 16.2367 9.81267 16.6601 10.4727 16.4378C11.1527 16.2072 11.4066 15.4538 11.6107 14.8481C11.6793 14.5936 11.7827 14.3507 11.9176 14.1269C12.1674 14.0574 12.4258 14.0278 12.6841 14.039C13.2951 14.0227 14.0557 14.0026 14.472 13.4058C14.8853 12.8133 14.6709 12.0565 14.4987 11.4484C14.4081 11.1932 14.355 10.9252 14.341 10.6535C14.5006 10.4543 14.6868 10.2799 14.8939 10.1357C15.3867 9.74359 16 9.25539 16 8.49992C16 7.74445 15.3867 7.25624 14.8936 6.86406ZM10.9714 7.25318L7.63803 10.73C7.57614 10.7945 7.50266 10.8458 7.42178 10.8807C7.3409 10.9157 7.25421 10.9337 7.16667 10.9337C7.07912 10.9337 6.99243 10.9157 6.91156 10.8807C6.83068 10.8458 6.75719 10.7945 6.6953 10.73L5.02863 8.99157C4.96544 8.9273 4.91511 8.85059 4.88056 8.76588C4.84601 8.68117 4.82793 8.59015 4.82737 8.49809C4.82681 8.40604 4.84378 8.31478 4.8773 8.22962C4.91082 8.14446 4.96021 8.06709 5.02262 8.002C5.08503 7.9369 5.15921 7.88538 5.24086 7.85042C5.3225 7.81546 5.40999 7.79776 5.49825 7.79835C5.58651 7.79893 5.67378 7.81779 5.75499 7.85382C5.83621 7.88986 5.90975 7.94235 5.97137 8.00827L7.16667 9.25504L10.0286 6.26988C10.0902 6.20397 10.1638 6.15147 10.245 6.11544C10.3262 6.0794 10.4135 6.06055 10.5017 6.05996C10.59 6.05938 10.6775 6.07708 10.7591 6.11204C10.8408 6.147 10.915 6.19852 10.9774 6.26361C11.0398 6.32871 11.0892 6.40608 11.1227 6.49124C11.1562 6.5764 11.1732 6.66765 11.1726 6.75971C11.1721 6.85176 11.154 6.94279 11.1194 7.0275C11.0849 7.11221 11.0346 7.18892 10.9714 7.25318Z" fill="url(#paint0_linear_74_7211)"/>
<defs>
<linearGradient id="paint0_linear_74_7211" x1="-0.0033389" y1="8.49226" x2="15.9866" y2="8.49226" gradientUnits="userSpaceOnUse">
<stop stop-color="#13B89B"/>
<stop offset="1" stop-color="#29ABE2"/>
</linearGradient>
</defs>
</svg>
